<svg xmlns="http://www.w3.org/2000/svg" width="43" height="41"><path d="M43 20.98c.01.37-.12.72-.38.97l-3.76 3.79.04 8.76c-.02.06-.04.15-.05.25v-.03c-.02.05-.03.09-.04.14-.02.04-.03.09-.04.12-.01.05-.02.1-.04.14l-.03.06c-.02.05-.05.11-.08.16l-.03.05c-.04.06-.09.12-.13.16l-.06.05c-.05.05-.11.1-.15.13-.03.02-.06.03-.09.05l-.18.1c-.16.06-.32.09-.49.09l-3.15.02c-.36 0-.69-.14-.94-.38a1.31 1.31 0 0 1-.39-.93c0-.72.59-1.28 1.34-1.28h1.81v-8.09c-.01-.12 0-.27.02-.37l.02-.06c.01-.07.02-.13.06-.21.07-.18.19-.35.35-.5l3.23-3.22-2.9-2.91-.16-.12c-.32-.2-.54-.54-.6-.95-.02-.1-.03-.21-.02-.33V8.65h-1.81c-.74 0-1.34-.59-1.34-1.32 0-.36.14-.69.39-.94.26-.25.59-.39.95-.39h3.2c.16.01.31.04.44.1.03.02.07.04.1.05l.05.03c.04.02.07.03.1.05.06.04.11.09.16.13.02.02.04.04.07.06.04.05.08.1.11.15l.04.06c.03.04.06.09.08.14.01.03.03.06.04.09.02.05.03.1.05.15.01.04.02.09.04.14.01.02.02.05.02.08.01.09.03.18.05.24l-.04 8.69 3.75 3.79c.27.26.4.61.39 1.03zM28.37 9.28c.01.08.01.15.01.21-.01.06-.02.13-.05.22l-.02.08-2.25 25.99c-.01.25-.1.49-.26.71l-.03.04c-.06.07-.11.13-.16.17l-4.65 4c-.24.19-.52.3-.82.3-.38 0-.73-.17-.98-.47-.01-.02-.03-.05-.04-.07l-3.86-4.67c-.23-.28-.33-.65-.27-1.03l2.93-33.52c.01-.04.02-.08.02-.12l.02-.07V1c.01-.02.02-.05.03-.08.02-.04.03-.09.06-.15l.03-.05c.03-.05.06-.11.1-.16l.03-.03c.05-.07.1-.12.13-.14l.06-.05c.05-.04.11-.09.16-.12l.16-.07c.02-.01.05-.03.07-.04.05-.01.1-.03.15-.04.06-.01.12-.03.18-.05.02 0 .04-.01.06-.01.03 0 .05-.01.07-.01l8.57.82h.09c.23 0 .46.15.62.28.33.27.5.69.46 1.12l-.63 6.98.01.08zm-10.74 24.5l6.01.53 2.05-23.76-6.01-.54-2.05 23.77zm2.71-31.02l-.43 4.67 6.01.54.43-4.68-6.01-.53zM6.74 24.67c.03.08.05.14.06.21l.02.06c.02.1.03.25.02.37v8.09h1.81c.75 0 1.34.56 1.34 1.28 0 .35-.14.68-.39.93-.25.24-.58.38-.94.38l-3.15-.02c-.17 0-.33-.03-.49-.09l-.18-.1c-.03-.02-.06-.03-.09-.05-.04-.03-.1-.08-.15-.13l-.06-.05c-.04-.04-.09-.1-.13-.16l-.03-.05c-.03-.05-.06-.11-.08-.16l-.03-.06a.573.573 0 0 1-.04-.14c-.01-.03-.02-.08-.04-.12a.737.737 0 0 0-.04-.14v.03c-.01-.1-.03-.19-.05-.25l.04-8.76-3.76-3.79c-.26-.25-.39-.6-.38-.97-.01-.42.12-.77.39-1.03l3.75-3.79-.04-8.69c.02-.06.04-.15.05-.24 0-.03.01-.06.02-.08.01-.05.03-.1.04-.14.02-.05.03-.1.05-.15.01-.03.03-.06.04-.09.02-.05.05-.1.08-.14l.04-.06c.03-.05.07-.1.11-.15.03-.02.05-.04.07-.06.05-.04.1-.09.16-.13.03-.02.06-.03.1-.05l.05-.03c.03-.01.07-.03.1-.05.13-.06.28-.09.44-.1h3.2c.36 0 .69.14.95.39.25.25.39.58.39.94 0 .73-.6 1.32-1.34 1.32H6.84v7.99c.01.12 0 .23-.02.33-.06.41-.28.75-.6.95l-.16.12-2.9 2.91 3.23 3.22c.16.15.28.32.35.5z" fill="#8D81AB"/></svg>